<svg xmlns="http://www.w3.org/2000/svg" viewBox="0 0 48 24.62"><title>battery</title><g id="Ebene_2" data-name="Ebene 2"><g id="Icons"><path d="M46.15,7.38H44.31V2.46A2.46,2.46,0,0,0,41.85,0H2.46A2.46,2.46,0,0,0,0,2.46V22.15a2.46,2.46,0,0,0,2.46,2.46H41.85a2.46,2.46,0,0,0,2.46-2.46V17.23h1.85A1.85,1.85,0,0,0,48,15.39V9.23A1.85,1.85,0,0,0,46.15,7.38ZM40.62,20.92H3.69V3.69H40.62Z"/><polygon points="6.07 6.07 6.07 18.54 18.44 18.54 12.26 6.07 6.07 6.07"/><polygon points="14.11 6.07 20.3 18.54 30.2 18.54 24.01 6.07 14.11 6.07"/><polygon points="25.86 6.07 32.05 18.54 38.24 18.54 38.24 6.07 25.86 6.07"/></g></g></svg>