<svg xmlns="http://www.w3.org/2000/svg" viewBox="0 0 38 48"><title>boy</title><g id="Ebene_2" data-name="Ebene 2"><g id="Icons"><path d="M36.9,21.53c-.05-.1-.15-.15-.2-.25A16.43,16.43,0,0,0,36.6,14a16.88,16.88,0,0,0-4.51-7.9,20.36,20.36,0,0,0-4-3.27A18.15,18.15,0,0,0,24.07.81H24A16.86,16.86,0,0,0,20.17.05C19.66,0,19.15,0,18.65,0a15.58,15.58,0,0,0-7.91,2.06A14.11,14.11,0,0,0,6.63,5.48,7.5,7.5,0,0,0,3.33,8c-2.28,2.87-3,7.35-2,13.28-.05.1-.15.15-.2.25C-.63,23.8,0,27,.69,29.28,1.1,30.69,1.86,33.36,3.53,35a18.37,18.37,0,0,0,11,12.28,13.72,13.72,0,0,0,9,0c5.93-2.11,9.69-7.55,11-12.28,1.67-1.61,2.43-4.28,2.84-5.69C38,27.07,38.63,23.8,36.9,21.53Zm-2.84,6.84c-1,3.47-1.93,4.43-2.59,4.48-.66,4.13-3.85,9.36-9.13,11.22a9.35,9.35,0,0,1-3.35.55,9.59,9.59,0,0,1-3.35-.6A14.92,14.92,0,0,1,6.53,32.81c-.71-.05-1.62-1-2.59-4.48C2.67,23.9,3.84,23,5,23h.25c0-.05,0-.05-.05-.1C5,22.19,4,18.16,7.54,15.7c2.84.65,7.2.81,13-1.71,11.21-4.73,12.22,9,12.22,9H33C34.16,23,35.33,23.9,34.06,28.38Z"/></g></g></svg>