<svg xmlns="http://www.w3.org/2000/svg" viewBox="0 0 45 45"><title>gear</title><g id="Ebene_2" data-name="Ebene 2"><g id="Icons"><path d="M42.66,17.5H40.72A18.89,18.89,0,0,0,39,13.2l1.55-1.55a2.2,2.2,0,0,0,0-3.11l-4-4a2.2,2.2,0,0,0-3.09,0L31.82,6.1A18.2,18.2,0,0,0,27.5,4.35V2.2A2.15,2.15,0,0,0,25.34,0H19.71A2.19,2.19,0,0,0,17.5,2.2V4.35A18.94,18.94,0,0,0,13.2,6.1L11.65,4.55a2.2,2.2,0,0,0-3.1,0l-4,4a2.2,2.2,0,0,0,0,3.1L6.1,13.2a18.05,18.05,0,0,0-1.75,4.3H2.2A2.12,2.12,0,0,0,0,19.65V25.3a2.21,2.21,0,0,0,2.2,2.2H4.42a18.91,18.91,0,0,0,1.74,4.29L4.62,33.33a2.2,2.2,0,0,0,0,3.1l4,4a2.2,2.2,0,0,0,3.1,0l1.53-1.54a17.94,17.94,0,0,0,4.28,1.75V42.8A2.21,2.21,0,0,0,19.7,45h5.6a2.21,2.21,0,0,0,2.2-2.2V40.58a18.91,18.91,0,0,0,4.29-1.74l1.54,1.54a2.2,2.2,0,0,0,3.1,0l4-4a2.2,2.2,0,0,0,0-3.1l-1.54-1.53a17.94,17.94,0,0,0,1.75-4.28H42.8A2.21,2.21,0,0,0,45,25.3V19.69A2.46,2.46,0,0,0,42.66,17.5ZM22.42,34.95a12.5,12.5,0,1,1,12.5-12.5A12.5,12.5,0,0,1,22.42,34.95Z"/></g></g></svg>