<svg xmlns="http://www.w3.org/2000/svg" viewBox="0 0 42 48"><title>girl</title><g id="Ebene_2" data-name="Ebene 2"><g id="Icons"><path d="M33.5,23.54c1.58-1.16,2.11.67,1.83,2.55-.22,1.45-1.07,4-2.59,3.08,0,0,0,0,0,0A14.74,14.74,0,0,1,27.93,39v3.37C35.34,48.31,42,47.73,42,47.73,35,41.88,43.23,12.89,33,4,25.3-1.34,20,.24,20,.24A15.17,15.17,0,0,0,7,4c-10.26,8.86-.19,37.09-7,43.53a10,10,0,0,0,11.95-5.18V38.9a16.72,16.72,0,0,1-3.6-5.38,36.59,36.59,0,0,1-1.1-4.44c-1.61,1.2-2.52-1.84-2.75-3.3-.17-1.09-.22-3.25,1.5-2.43A48.88,48.88,0,0,0,13.41,7Z"/></g></g></svg>