<svg xmlns="http://www.w3.org/2000/svg" viewBox="0 0 40 40"><title>power</title><g id="Ebene_2" data-name="Ebene 2"><g id="Icons"><path d="M20,0h0A20.06,20.06,0,0,0,0,20H0A20.06,20.06,0,0,0,20,40h0A20.06,20.06,0,0,0,40,20h0A20.06,20.06,0,0,0,20,0ZM18.75,9.5a1.25,1.25,0,0,1,2.5,0V21a1.25,1.25,0,0,1-2.5,0V9.5Zm9.42,18.83A11.49,11.49,0,0,1,11.92,12.08a4.76,4.76,0,0,1,.67-.58,1.24,1.24,0,1,1,1.67,1.83A9,9,0,1,0,27,14.25a5.23,5.23,0,0,0-1-.92,1.24,1.24,0,1,1,1.58-1.92h0a11.4,11.4,0,0,1,1.25,16.17A6.81,6.81,0,0,1,28.17,28.33Z"/></g></g></svg>