<svg xmlns="http://www.w3.org/2000/svg" viewBox="0 0 45 45"><title>screwdriver</title><g id="Ebene_2" data-name="Ebene 2"><g id="Icons"><path d="M24.1,24.62a.94.94,0,0,0-1.33,0l-2.42-2.43A.94.94,0,0,0,19,20.86L6.17,33.73H4.69a.94.94,0,0,0-.84.52L.1,41.76a.94.94,0,0,0,.18,1.08l1.87,1.88a.92.92,0,0,0,.66.28.93.93,0,0,0,.42-.1l7.5-3.76a.94.94,0,0,0,.52-.84V38.82L24.1,25.94A.94.94,0,0,0,24.1,24.62Z"/><path d="M43.4,2.63l-1.1-1.1a5.65,5.65,0,0,0-7.72,0L22.78,13.35a.93.93,0,0,0-.28.66,2.82,2.82,0,0,1-2.81,2.82.94.94,0,0,0-.66.27L17.15,19a.94.94,0,0,0,0,1.33l7.5,7.51a.94.94,0,0,0,1.33,0l1.87-1.88a.94.94,0,0,0,.27-.66,2.82,2.82,0,0,1,2.81-2.82.94.94,0,0,0,.66-.27L43.4,10.37a5.48,5.48,0,0,0,0-7.74ZM26.91,16.55a.94.94,0,0,1-1.33-1.33L36.84,4a.94.94,0,1,1,1.33,1.33ZM41,8.1,29.73,19.37A.94.94,0,0,1,28.4,18L39.65,6.77A.94.94,0,0,1,41,8.1Z"/></g></g></svg>