<svg xmlns="http://www.w3.org/2000/svg" viewBox="0 0 45 33.14"><defs><style>.cls-1{fill:#010101;}</style></defs><title>sensor</title><g id="Ebene_2" data-name="Ebene 2"><g id="Icons"><path class="cls-1" d="M28.21,16.58a5.67,5.67,0,1,1-5.67-5.67,5.67,5.67,0,0,1,5.67,5.67"/><path class="cls-1" d="M14.67,5.83a2,2,0,0,0-2.87,0,15.28,15.28,0,0,0,0,21.49,2,2,0,0,0,2.79-2.87,11.15,11.15,0,0,1,0-15.75,2.07,2.07,0,0,0,.07-2.87Z"/><path class="cls-1" d="M33.29,5.83A2,2,0,0,0,30.42,8.7a11.15,11.15,0,0,1,0,15.75,2,2,0,1,0,2.79,2.87,15.21,15.21,0,0,0,.07-21.49Z"/><path class="cls-1" d="M35.57.68a2,2,0,0,0,0,2.87,18.48,18.48,0,0,1,0,26.13,2,2,0,1,0,2.79,2.87A22.55,22.55,0,0,0,38.44.68a2,2,0,0,0-2.87,0Z"/><path class="cls-1" d="M9.44,3.48a2,2,0,0,0,0-2.87,2,2,0,0,0-2.87,0,22.62,22.62,0,0,0,0,31.87,2,2,0,0,0,2.79-2.87A18.55,18.55,0,0,1,9.44,3.48Z"/></g></g></svg>