<svg xmlns="http://www.w3.org/2000/svg" viewBox="0 0 48 27.2"><title>sun</title><g id="Ebene_2" data-name="Ebene 2"><g id="Icons"><path d="M24.4,9.4a1.84,1.84,0,0,0,1.9-1.9V1.9A2,2,0,0,0,24.4,0a1.84,1.84,0,0,0-1.9,1.9V7.5A1.84,1.84,0,0,0,24.4,9.4Z"/><path d="M46.1,23.4H37.3a13.08,13.08,0,0,0-25.8,0H1.9A1.84,1.84,0,0,0,0,25.3a2,2,0,0,0,1.9,1.9H46.1A1.84,1.84,0,0,0,48,25.3,1.9,1.9,0,0,0,46.1,23.4Zm-30.8,0a9.35,9.35,0,0,1,18.2,0Z"/><path d="M10.3,14a1.79,1.79,0,0,0,1.3.5,1.9,1.9,0,0,0,1.3-.5,1.87,1.87,0,0,0,0-2.6l-4-3.9a2,2,0,0,0-2.7,0,1.87,1.87,0,0,0,0,2.6Z"/><path d="M37.2,14.6a1.9,1.9,0,0,0,1.3-.5l4-3.9a1.87,1.87,0,0,0,0-2.6,2,2,0,0,0-2.7,0l-4,3.9a1.87,1.87,0,0,0,0,2.6A2.39,2.39,0,0,0,37.2,14.6Z"/></g></g></svg>