<svg xmlns="http://www.w3.org/2000/svg" viewBox="0 0 40.01 40"><defs><style>.cls-1{fill:#010202;}</style></defs><title>sunrise</title><g id="Ebene_2" data-name="Ebene 2"><g id="Icons"><g id="Ebene_2-2" data-name="Ebene 2"><g id="Icons-2" data-name="Icons"><path class="cls-1" d="M20,7.69a1.54,1.54,0,0,0,1.54-1.54h0V1.54a1.54,1.54,0,0,0-3.08,0V6.15A1.54,1.54,0,0,0,20,7.69Z"/><path class="cls-1" d="M38.46,18.46H33.85a1.54,1.54,0,0,0,0,3.08h4.62a1.54,1.54,0,0,0,0-3.08Z"/><path class="cls-1" d="M6.15,21.54a1.54,1.54,0,0,0,0-3.08H1.54a1.54,1.54,0,0,0,0,3.08Z"/><path class="cls-1" d="M29.79,11.75a1.53,1.53,0,0,0,1.09-.45L34.14,8A1.54,1.54,0,1,0,32,5.86L28.7,9.12a1.54,1.54,0,0,0,1.09,2.63Z"/><path class="cls-1" d="M9.12,11.3A1.54,1.54,0,0,0,11.3,9.12L8,5.86A1.54,1.54,0,0,0,5.86,8Z"/><path class="cls-1" d="M36.92,24.62H28a9.23,9.23,0,1,0-16,0H3.08a1.54,1.54,0,0,0,0,3.08H36.92a1.54,1.54,0,0,0,0-3.08ZM13.85,20a6.15,6.15,0,0,1,12.31,0A6.08,6.08,0,0,1,24,24.62H16A6.09,6.09,0,0,1,13.85,20Z"/><path class="cls-1" d="M21.09,32.76a1.54,1.54,0,0,0-2.18,0h0L14.3,37.37a1.54,1.54,0,1,0,2.18,2.18L20,36l3.53,3.53a1.54,1.54,0,0,0,2.18-2.18Z"/></g></g></g></g></svg>