<svg xmlns="http://www.w3.org/2000/svg" viewBox="0 0 47.9 25"><title>switch-active</title><g id="Ebene_2" data-name="Ebene 2"><g id="Icons"><path d="M26.9,12.5a7.9,7.9,0,0,1,7.9-7.8H35a7.83,7.83,0,0,1,7.9,7.8A7.9,7.9,0,0,1,35,20.3h-.1a7.86,7.86,0,0,1-8-7.8M12.7,2.9H35.2A9.71,9.71,0,0,1,45,12.5a9.71,9.71,0,0,1-9.8,9.6H12.7a9.71,9.71,0,0,1-9.8-9.6,9.78,9.78,0,0,1,9.8-9.6m0,22.1H35.2A12.61,12.61,0,0,0,47.9,12.5,12.61,12.61,0,0,0,35.2,0H12.7A12.61,12.61,0,0,0,0,12.5,12.61,12.61,0,0,0,12.7,25"/></g></g></svg>