<svg xmlns="http://www.w3.org/2000/svg" viewBox="0 0 19 47.9"><title>thermometer</title><g id="Ebene_2" data-name="Ebene 2"><g id="Icons"><path d="M14.8,30.5V5.3a5.3,5.3,0,0,0-10.6,0V30.5A9.51,9.51,0,0,0,9.5,47.9a9.51,9.51,0,0,0,5.3-17.4ZM9.5,46A7.6,7.6,0,0,1,6.3,31.5V5.3A3.2,3.2,0,0,1,9.4,2.1a3.14,3.14,0,0,1,3.1,3.2V31.5a7.55,7.55,0,0,1,4.4,6.9A7.31,7.31,0,0,1,9.5,46Z"/><path d="M11.2,33.1V21.5a1.75,1.75,0,0,0-1.7-1.7,1.75,1.75,0,0,0-1.7,1.7V33.1a5.49,5.49,0,0,0-3.9,5.3,5.6,5.6,0,1,0,7.3-5.3Z"/></g></g></svg>