<svg xmlns="http://www.w3.org/2000/svg" viewBox="0 0 40.72 40"><defs><style>.cls-1{fill:#010101;}</style></defs><title>thief</title><g id="Ebene_2" data-name="Ebene 2"><g id="Icons"><path class="cls-1" d="M1.38,40H39.32a1.41,1.41,0,0,0,1.39-1.41c0-7.15-9-10-12.88-10.9a.11.11,0,0,1-.08-.1V26.05a11.75,11.75,0,0,0,2-3.9,7.77,7.77,0,0,0,1.71-3.44c.39-1.39.79-3.4-.3-4.84l0-.06c.52-2.54,1.18-8.49-3.35-11.51a2.8,2.8,0,0,0,.8-2,.27.27,0,0,0-.1-.19A.28.28,0,0,0,28.25,0c-.06,0-5.72.64-8.45.08a6,6,0,0,0-6.51,3.73A4.12,4.12,0,0,0,10.6,5.34C9.35,6.87,9,9.29,9.47,12.55c0,.42.08.83.16,1.25l-.05.06c-1.08,1.44-.69,3.45-.3,4.84A7.87,7.87,0,0,0,11,22.14h0a11.8,11.8,0,0,0,2,3.93v1.51h0a.1.1,0,0,1-.08.1C9,28.58,0,31.42,0,38.58H0A1.41,1.41,0,0,0,1.38,40Zm19-6.83a7.43,7.43,0,0,1-6.09-3,2.91,2.91,0,0,0,1.33-1.57,9.45,9.45,0,0,0,2,1,8.19,8.19,0,0,0,5.47,0,9.59,9.59,0,0,0,2-1,2.9,2.9,0,0,0,1.33,1.6,7.43,7.43,0,0,1-6.09,3ZM15,9.73c1.13-.69,2.57-.66,4.29.07a12.53,12.53,0,0,0,7.75,1,3.4,3.4,0,0,1,1.29,3.36,24,24,0,0,0-15.79-.09c.24-1.19.85-3.41,2.46-4.39Zm10.3,6.5A1.31,1.31,0,1,1,24,14.92a1.31,1.31,0,0,1,1.31,1.31Zm-7.39,0a1.28,1.28,0,1,1-.37-.93,1.31,1.31,0,0,1,.37.93ZM11.7,18c-.05-.18-.1-.35-.13-.51h0a24,24,0,0,0,17.56,0c0,.16-.08.33-.13.51-.64,2.26-1.16,2.47-1.31,2.49h0a.27.27,0,0,0-.25.23,8.6,8.6,0,0,1-5.22,6.46h0a5.64,5.64,0,0,1-3.77,0,8.44,8.44,0,0,1-5.21-6.46.27.27,0,0,0-.25-.22c-.13,0-.66-.23-1.29-2.49Z"/></g></g></svg>