<svg xmlns="http://www.w3.org/2000/svg" viewBox="0 0 45 29.09"><title>trashcan</title><g id="Ebene_2" data-name="Ebene 2"><g id="Icons"><path d="M26.24,2.33H1.51a1.51,1.51,0,0,0,0,3h.26L4.67,27.76a1.52,1.52,0,0,0,1.51,1.33H23.84a1.52,1.52,0,0,0,1.51-1.33L28.18,5.68Zm-17,23.32H9.16a.89.89,0,0,1-.88-.84L7.56,12.13A.89.89,0,0,1,9.34,12L10,24.72A.89.89,0,0,1,9.21,25.66Zm6.72-.89a.89.89,0,0,1-1.77,0V12.08a.89.89,0,0,1,1.77,0Zm6.59-12.64L21.8,24.82a.89.89,0,0,1-.88.84h-.05a.89.89,0,0,1-.84-.93L20.74,12a.89.89,0,1,1,1.77.1Z"/><path d="M44.59,23.87l-3.86-6.63,1.15-.8a2.76,2.76,0,0,0,1-3.76L40.42,8.54a2.77,2.77,0,0,0-3.74-1l-1.26.61L31.56,1.5A3,3,0,0,0,27.43.41l-.26.15A1.07,1.07,0,0,0,26.78,2l.18.31h0l1.74,3h0L41.77,27.77a1.07,1.07,0,0,0,1.46.39L43.5,28a3,3,0,0,0,1.09-4.13Zm-8.17-14,1.15-.55.07,0a.79.79,0,0,1,1.08.29l2.41,4.15a.79.79,0,0,1-.28,1.08l-.07,0-1,.73Z"/></g></g></svg>