<svg xmlns="http://www.w3.org/2000/svg" viewBox="0 0 33.61 48"><title>trashcan</title><g id="Ebene_2" data-name="Ebene 2"><g id="Icons"><path d="M13.06,43a6.85,6.85,0,0,1,8.25-5.07c.54.14,1.56.27,1.62.07,1.22-5.07,2.43-10.14,3.58-15.22a3.81,3.81,0,0,1,.27-.81l1.08.2A2.69,2.69,0,0,0,31,20.54a1.67,1.67,0,0,1,1.08-1.15,2.45,2.45,0,0,0-1.42-4.67c-.2.07-.41.07-.61.14a.69.69,0,0,1-.81-.41,7.18,7.18,0,0,0-2.91-2.77L21.44,8.24C17.86,5.67,14.34,3.17,10.83.66A3.58,3.58,0,0,0,7.45.26c-.07.07-.2.07-.27.14A2.75,2.75,0,0,0,7.31,5c3.11,2.23,6.29,4.46,9.47,6.69,1,.74,2,1.42,3,2.16a.3.3,0,0,1-.2.54C16.57,13.78,9,12,4.94,11a2.76,2.76,0,0,0-3.52,2,2.82,2.82,0,0,0,2.16,3.38l.74.2c.27.07.47.27.41.54-.14,2.57-1,14.88-1.35,21.17-.14,2-.47,3.58-2.37,4.46-.07,0-.07.07-.14.14a2.34,2.34,0,0,0-.74,2.64,2.25,2.25,0,0,0,2.37,1.35,19.51,19.51,0,0,0,2-.27c1.76-.47,4.8-.14,6.83.14a1.43,1.43,0,0,0,1.62-1.62A5.85,5.85,0,0,1,13.06,43Z"/><circle cx="20.09" cy="44.69" r="3.31"/></g></g></svg>