<svg xmlns="http://www.w3.org/2000/svg" viewBox="0 0 40 40"><defs><style>.cls-1{fill:#010101;}</style></defs><title>undefined</title><g id="Ebene_2" data-name="Ebene 2"><g id="Icons"><path class="cls-1" d="M22.07,29.8A2.07,2.07,0,1,1,20,27.74a2.07,2.07,0,0,1,2.07,2.07ZM14.61,14.86a2.05,2.05,0,0,0,2.74-1h0A2.93,2.93,0,0,1,20,12.23a3,3,0,0,1,3,2.85,2.93,2.93,0,0,1-2,2.87,4.35,4.35,0,0,0-3,4.09v1.64a2.06,2.06,0,1,0,4.11,0V22c0-.12.21-.19.21-.19A7,7,0,0,0,27,15a7.11,7.11,0,0,0-7-6.85h0a7,7,0,0,0-6.28,4,2.05,2.05,0,0,0,1,2.74h0ZM0,30.34V9.66A9.67,9.67,0,0,1,9.66,0H30.34A9.67,9.67,0,0,1,40,9.66V30.34A9.67,9.67,0,0,1,30.34,40H9.66A9.67,9.67,0,0,1,0,30.34Zm3.91,0a5.75,5.75,0,0,0,5.75,5.75H30.34a5.75,5.75,0,0,0,5.75-5.75V9.66a5.75,5.75,0,0,0-5.75-5.75H9.66A5.75,5.75,0,0,0,3.91,9.66Z"/></g></g></svg>