<svg xmlns="http://www.w3.org/2000/svg" viewBox="0 0 40 38.15"><defs><style>.cls-1{fill:#010101;}</style></defs><title>weather-partly-cloudy-night</title><g id="Ebene_2" data-name="Ebene 2"><g id="Icons"><path class="cls-1" d="M40,22.44A12.94,12.94,0,0,1,29.32.82a12.47,12.47,0,0,0-3.8.92A13,13,0,0,0,17.61,15a10.26,10.26,0,0,0-3.13-.51A10.94,10.94,0,0,0,3.8,24a7.59,7.59,0,0,0,4,14.17H31a8.07,8.07,0,0,0,8.16-7.75A7.55,7.55,0,0,0,36.71,25,10,10,0,0,0,40,22.44Zm-3.54,8a5.31,5.31,0,0,1-5.44,5H7.8a5,5,0,0,1-5-5,5.41,5.41,0,0,1,3-4.42l.62-.36.1-.72c.51-4.47,3.9-7.7,8.06-7.7a6.87,6.87,0,0,1,4,1.18,12.69,12.69,0,0,1,1.39,1.08l.51.46.67-.15a8.68,8.68,0,0,1,1.54-.15,5.5,5.5,0,0,1,5.34,4.72l.21,1.49,1.44-.36A6.84,6.84,0,0,1,31,25.37a5.81,5.81,0,0,1,2.82.77A5.26,5.26,0,0,1,36.46,30.45Z"/><polygon class="cls-1" points="7.5 8.27 10.17 6.83 12.89 8.27 12.38 5.29 14.53 3.18 11.5 2.72 10.17 0 8.83 2.72 5.85 3.18 8.01 5.29 7.5 8.27"/><polygon class="cls-1" points="1.69 17.2 3.59 16.23 5.44 17.2 5.08 15.15 6.62 13.66 4.52 13.35 3.59 11.45 2.62 13.35 0.56 13.66 2.05 15.15 1.69 17.2"/></g></g></svg>