<svg xmlns="http://www.w3.org/2000/svg" viewBox="0 0 35.42 40"><defs><style>.cls-1{fill:#010101;}</style></defs><title>weather-tornado</title><g id="Ebene_2" data-name="Ebene 2"><g id="Icons"><path class="cls-1" d="M30.43,5.07A51.13,51.13,0,0,0,18.86,1.29C12.28-.14,1-1.29.06,3-.33,5,1.26,6.77,5,8.58a51.13,51.13,0,0,0,11.57,3.78,56.71,56.71,0,0,0,10.91,1.26c4.06,0,7.4-.77,7.9-3.07C35.75,8.69,34.16,6.88,30.43,5.07ZM17.16,9.51C8.55,7.65,3.57,4.85,3,3.65c1-.88,6.69-1.37,15.3.44S31.91,8.75,32.46,10C31.42,10.83,25.77,11.38,17.16,9.51Z"/><path class="cls-1" d="M32.46,16.26C23.31,18.18,11,16,4.55,11.27a1.45,1.45,0,1,0-1.7,2.36c5.32,3.89,14.2,6.2,22.54,6.2a35.22,35.22,0,0,0,7.73-.77,1.4,1.4,0,0,0,1.1-1.7A1.47,1.47,0,0,0,32.46,16.26Z"/><path class="cls-1" d="M20.84,25.36q2,0,4.11-.16a1.46,1.46,0,0,0-.16-2.91c-9.1.66-14.53-.66-20.56-4.93a1.45,1.45,0,1,0-1.7,2.36C8.17,23.71,13.38,25.36,20.84,25.36Z"/><path class="cls-1" d="M16,27.17c-5.92.33-8.61-1.43-11.3-3.56a1.44,1.44,0,0,0-1.81,2.25A17.12,17.12,0,0,0,14.7,30.08,13.86,13.86,0,0,0,16.18,30a1.43,1.43,0,0,0,1.37-1.54A1.36,1.36,0,0,0,16,27.17Z"/><path class="cls-1" d="M14.15,32.54c-2.58,0-3.89-.38-5.21-1.59a1.48,1.48,0,1,0-2,2.19c2.14,2,4.44,2.41,7.18,2.41a1.47,1.47,0,0,0,1.48-1.48A1.56,1.56,0,0,0,14.15,32.54Z"/><path class="cls-1" d="M13.05,37a1.24,1.24,0,0,1-.71-.16,1.44,1.44,0,0,0-1.86,2.19,4,4,0,0,0,2.63.93,1.47,1.47,0,0,0,1.48-1.48A1.64,1.64,0,0,0,13.05,37Z"/></g></g></svg>