<svg xmlns="http://www.w3.org/2000/svg" viewBox="0 0 40 40"><defs><style>.cls-1{fill:#010101;}</style></defs><title>weather-clear-day</title><g id="Ebene_2" data-name="Ebene 2"><g id="Icons"><circle class="cls-1" cx="20" cy="20" r="8.61"/><path class="cls-1" d="M19.82,8.18h.36a1.47,1.47,0,0,0,1.45-1.45V1.45A1.47,1.47,0,0,0,20.18,0h-.36a1.47,1.47,0,0,0-1.45,1.45V6.73A1.47,1.47,0,0,0,19.82,8.18Z"/><path class="cls-1" d="M28.48,11.76a1.5,1.5,0,0,0,2.06,0l3.7-3.7a1.5,1.5,0,0,0,0-2.06L34,5.76a1.5,1.5,0,0,0-2.06,0l-3.7,3.7a1.5,1.5,0,0,0,0,2.06Z"/><path class="cls-1" d="M38.55,18.36H33.27a1.47,1.47,0,0,0-1.45,1.45v.36a1.47,1.47,0,0,0,1.45,1.45h5.27A1.47,1.47,0,0,0,40,20.18v-.36A1.47,1.47,0,0,0,38.55,18.36Z"/><path class="cls-1" d="M30.55,28.24a1.5,1.5,0,0,0-2.06,0l-.24.24a1.5,1.5,0,0,0,0,2.06l3.7,3.7a1.5,1.5,0,0,0,2.06,0l.24-.24a1.5,1.5,0,0,0,0-2.06Z"/><path class="cls-1" d="M20.18,31.82h-.36a1.47,1.47,0,0,0-1.45,1.45v5.27A1.47,1.47,0,0,0,19.82,40h.36a1.47,1.47,0,0,0,1.45-1.45V33.27A1.47,1.47,0,0,0,20.18,31.82Z"/><path class="cls-1" d="M11.52,28.24a1.5,1.5,0,0,0-2.06,0l-3.7,3.7a1.5,1.5,0,0,0,0,2.06l.24.24a1.5,1.5,0,0,0,2.06,0l3.7-3.7a1.5,1.5,0,0,0,0-2.06Z"/><path class="cls-1" d="M8.18,20.18v-.36a1.47,1.47,0,0,0-1.45-1.45H1.45A1.47,1.47,0,0,0,0,19.82v.36a1.47,1.47,0,0,0,1.45,1.45H6.73A1.47,1.47,0,0,0,8.18,20.18Z"/><path class="cls-1" d="M9.45,11.76a1.5,1.5,0,0,0,2.06,0l.24-.24a1.5,1.5,0,0,0,0-2.06l-3.7-3.7A1.5,1.5,0,0,0,6,5.76L5.76,6a1.5,1.5,0,0,0,0,2.06Z"/></g></g></svg>