<svg xmlns="http://www.w3.org/2000/svg" viewBox="0 0 40 33.61"><defs><style>.cls-1{fill:#010101;}</style></defs><title>weather-wind</title><g id="Ebene_2" data-name="Ebene 2"><g id="Icons"><path class="cls-1" d="M1.38,18.19H23.24a1.38,1.38,0,1,0,0-2.76H1.38a1.38,1.38,0,0,0,0,2.76Z"/><path class="cls-1" d="M23.24,20.59H1.38a1.38,1.38,0,0,0,0,2.76H23.24a3.78,3.78,0,1,1-3.78,3.78,1.38,1.38,0,0,0-2.76,0,6.51,6.51,0,1,0,6.54-6.54Z"/><path class="cls-1" d="M33.51,0A6.5,6.5,0,0,0,27,6.49a1.38,1.38,0,1,0,2.76,0,3.78,3.78,0,1,1,3.78,3.78H1.38a1.38,1.38,0,0,0,0,2.76H33.51a6.51,6.51,0,0,0,0-13Z"/></g></g></svg>