<svg xmlns="http://www.w3.org/2000/svg" viewBox="0 0 40 34.78"><defs><style>.cls-1{fill:#010101;}</style></defs><title>weather-clear-night</title><g id="Ebene_2" data-name="Ebene 2"><g id="Icons"><path class="cls-1" d="M30.63,24.82A14.37,14.37,0,0,1,19.81,2.4,1.51,1.51,0,0,0,18.67,0,17.39,17.39,0,0,0,1.73,24.95,17.5,17.5,0,0,0,17.4,34.78a17.41,17.41,0,0,0,14.37-7.61,1.51,1.51,0,0,0-1.14-2.35Zm-7,5.51a14.21,14.21,0,0,1-6.23,1.43A14.37,14.37,0,0,1,11.14,4.45,14.23,14.23,0,0,1,16,3.09,17.38,17.38,0,0,0,27.69,27.41,14.38,14.38,0,0,1,23.63,30.33ZM39.48,7.55l-1.54.5,1,1.31a.75.75,0,1,1-1.22.89l-1-1.31-1,1.31a.75.75,0,1,1-1.22-.89l1-1.31L34,7.55a.76.76,0,0,1,.47-1.44l1.54.5V5a.75.75,0,0,1,1.51,0V6.62L39,6.12a.75.75,0,1,1,.46,1.44ZM24.1,5.61a.76.76,0,0,1,1-.48l1.18.39V4.26a.75.75,0,1,1,1.51,0V5.51l1.19-.39a.76.76,0,1,1,.47,1.44l-1.18.38.73,1A.75.75,0,0,1,28.78,9a.74.74,0,0,1-.44.14.75.75,0,0,1-.61-.31l-.73-1-.73,1A.76.76,0,0,1,25,8l.73-1-1.19-.38A.76.76,0,0,1,24.1,5.61Zm8.81,10.1a.75.75,0,0,1-.48,1l-1.32.43.82,1.12a.75.75,0,0,1-.17,1.05.74.74,0,0,1-.44.15.75.75,0,0,1-.61-.31L29.88,18l-.81,1.12a.76.76,0,0,1-.61.31.74.74,0,0,1-.44-.15.75.75,0,0,1-.17-1.05l.82-1.12-1.32-.43a.75.75,0,1,1,.47-1.44l1.32.43V14.27a.75.75,0,1,1,1.51,0v1.39L32,15.23A.75.75,0,0,1,32.91,15.71Z"/></g></g></svg>