<svg xmlns="http://www.w3.org/2000/svg" viewBox="0 0 40 35.08"><defs><style>.cls-1{fill:#010101;}</style></defs><title>weather-snow</title><g id="Ebene_2" data-name="Ebene 2"><g id="Icons"><path class="cls-1" d="M31.78,8.44a5.77,5.77,0,0,0-1,.05A8.23,8.23,0,0,0,23,2.55c-.42,0-1,.05-1.54.11A9.9,9.9,0,0,0,14.69,0C9.23,0,4.83,4,3.93,9.66A8.17,8.17,0,0,0,0,16.23a7.86,7.86,0,0,0,7.8,7.85h24A8.11,8.11,0,0,0,40,16.23,8.22,8.22,0,0,0,31.78,8.44Zm0,12.89h-24a5,5,0,0,1-5-5,5.54,5.54,0,0,1,3.08-4.46l.69-.37.05-.74c.48-4.56,3.93-7.9,8.17-7.9a7.46,7.46,0,0,1,5.46,2.39l.53.53.69-.16A7.86,7.86,0,0,1,23,5.46a5.45,5.45,0,0,1,5.36,4.88l.21,1.59,1.54-.42a5.84,5.84,0,0,1,1.64-.21,5.33,5.33,0,0,1,5.41,5A5.36,5.36,0,0,1,31.78,21.33Z"/><path class="cls-1" d="M27.69,30.66H26.37L27,29.5a1,1,0,0,0-.32-1.33.94.94,0,0,0-1.27.42l-.64,1.11-.58-1.11a.94.94,0,0,0-1.27-.42,1,1,0,0,0-.32,1.33l.64,1.17H21.91a.91.91,0,1,0,0,1.8h1.33l-.64,1.17A1,1,0,0,0,22.92,35a.94.94,0,0,0,1.27-.42l.64-1.11.64,1.11a.94.94,0,0,0,1.27.42,1,1,0,0,0,.32-1.33l-.64-1.17h1.33a1,1,0,0,0,1-.9A1.09,1.09,0,0,0,27.69,30.66Z"/><path class="cls-1" d="M16.71,28.28H15.38L16,27.11a1,1,0,0,0-.32-1.33.94.94,0,0,0-1.27.42l-.64,1.11-.64-1.11a.94.94,0,0,0-1.27-.42,1,1,0,0,0-.27,1.33l.64,1.17H10.93a.91.91,0,1,0,0,1.8h1.33l-.64,1.17a1,1,0,0,0,.32,1.33.94.94,0,0,0,1.27-.42L13.85,31l.64,1.11a.94.94,0,0,0,1.27.42,1,1,0,0,0,.32-1.33l-.64-1.17h1.33a1,1,0,0,0,1-.9A1,1,0,0,0,16.71,28.28Z"/></g></g></svg>