<svg xmlns="http://www.w3.org/2000/svg" viewBox="0 0 38.42 40"><defs><style>.cls-1{fill:#010101;}</style></defs><title>weather-thunderstorm</title><g id="Ebene_2" data-name="Ebene 2"><g id="Icons"><path class="cls-1" d="M30.56,8.11a5.55,5.55,0,0,0-.92.05,7.91,7.91,0,0,0-7.5-5.71c-.41,0-1,.05-1.48.1A9.52,9.52,0,0,0,14.13,0C8.88,0,4.64,3.88,3.78,9.29A7.86,7.86,0,0,0,0,15.61a7.56,7.56,0,0,0,7.5,7.55h8l-2.91,8.62h4.39L14.23,40,24,28.88H18.72L22,23.16h8.52a7.8,7.8,0,0,0,7.86-7.55A7.79,7.79,0,0,0,30.56,8.11ZM23.62,20.46H7.45a4.83,4.83,0,0,1-4.85-4.8,5.33,5.33,0,0,1,3-4.29L6.22,11l.05-.71c.46-4.39,3.78-7.6,7.86-7.6A7.17,7.17,0,0,1,19.39,5l.51.51.66-.15a7.56,7.56,0,0,1,1.58-.15A5.24,5.24,0,0,1,27.3,9.9l.2,1.53L29,11a5.61,5.61,0,0,1,1.58-.2,5.13,5.13,0,0,1,5.2,4.85,5.16,5.16,0,0,1-5.2,4.8Z"/></g></g></svg>