<svg xmlns="http://www.w3.org/2000/svg" viewBox="0 0 40 41.48"><defs><style>.cls-1{fill:#010101;}</style></defs><title>weather-rain</title><g id="Ebene_2" data-name="Ebene 2"><g id="Icons"><path class="cls-1" d="M8.89,29.79a1.36,1.36,0,0,0-1.8.69L6,33a1.42,1.42,0,0,0,.69,1.85,1,1,0,0,0,.58.11,1.43,1.43,0,0,0,1.27-.85l1.11-2.54A1.45,1.45,0,0,0,8.89,29.79Z"/><path class="cls-1" d="M16.93,28.68a1.36,1.36,0,0,0-1.8.69L14,31.9a1.42,1.42,0,0,0,.69,1.85,1,1,0,0,0,.58.11A1.43,1.43,0,0,0,16.56,33l1.11-2.54A1.43,1.43,0,0,0,16.93,28.68Z"/><path class="cls-1" d="M31.69,8.41a5.75,5.75,0,0,0-1,.05A8.21,8.21,0,0,0,23,2.54c-.42,0-1,.05-1.53.11A9.87,9.87,0,0,0,14.66,0C9.21,0,4.81,4,3.92,9.63A8.15,8.15,0,0,0,0,16.19,7.84,7.84,0,0,0,7.78,24H10l-.58,1.27a1.42,1.42,0,0,0,.69,1.85,1,1,0,0,0,.58.11,1.34,1.34,0,0,0,1.22-.79L13,24h4.55l-.05.16A1.42,1.42,0,0,0,18.2,26a1,1,0,0,0,.58.11,1.48,1.48,0,0,0,1.27-.79L20.63,24h4.6l-.58,1.27a1.42,1.42,0,0,0,.69,1.85,1.14,1.14,0,0,0,.58.11,1.34,1.34,0,0,0,1.22-.79l1.11-2.49h3.6A8.09,8.09,0,0,0,40,16.08,8.36,8.36,0,0,0,31.69,8.41Zm0,12.86h-24a5,5,0,0,1-5-5,5.53,5.53,0,0,1,3.07-4.44l.69-.37.05-.74C7,6.19,10.42,2.86,14.66,2.86a7.44,7.44,0,0,1,5.45,2.38l.53.53.69-.16A7.84,7.84,0,0,1,23,5.45a5.43,5.43,0,0,1,5.34,4.87l.21,1.59,1.53-.42a5.82,5.82,0,0,1,1.64-.21,5.32,5.32,0,0,1,5.4,5A5.35,5.35,0,0,1,31.69,21.27Z"/><path class="cls-1" d="M24,29.79a1.36,1.36,0,0,0-1.8.69L21.11,33a1.42,1.42,0,0,0,.69,1.85,1,1,0,0,0,.58.11,1.43,1.43,0,0,0,1.27-.85l1.11-2.54A1.45,1.45,0,0,0,24,29.79Z"/><path class="cls-1" d="M13.54,36.3a1.36,1.36,0,0,0-1.8.69l-1.11,2.54a1.42,1.42,0,0,0,.69,1.85,1,1,0,0,0,.58.11,1.34,1.34,0,0,0,1.22-.79l1.11-2.54A1.42,1.42,0,0,0,13.54,36.3Z"/></g></g></svg>