<svg xmlns="http://www.w3.org/2000/svg" viewBox="0 0 40 33"><defs><style>.cls-1{fill:#010101;}</style></defs><title>weather-partly-cloudy-day</title><g id="Ebene_2" data-name="Ebene 2"><g id="Icons"><path class="cls-1" d="M26.46,5.5h.26a1,1,0,0,0,1-1V1a1,1,0,0,0-1-1h-.26a1,1,0,0,0-1,1V4.51A1.06,1.06,0,0,0,26.46,5.5Z"/><path class="cls-1" d="M32.27,7.89a1,1,0,0,0,1.35,0L36.11,5.4a1,1,0,0,0,0-1.35L36,3.89a1,1,0,0,0-1.35,0L32.11,6.38a1,1,0,0,0,0,1.35Z"/><path class="cls-1" d="M39,12.3H35.49a1,1,0,0,0-1,1v.26a1,1,0,0,0,1,1H39a1,1,0,0,0,1-1v-.26A1.07,1.07,0,0,0,39,12.3Z"/><path class="cls-1" d="M19.56,7.89a1,1,0,0,0,1.35,0l.16-.16a1,1,0,0,0,0-1.35L18.57,3.89a1,1,0,0,0-1.35,0L17.07,4a1,1,0,0,0,0,1.35Z"/><path class="cls-1" d="M31,17.64a2,2,0,0,0-.57.05,5.75,5.75,0,0,0,1.92-4.25A5.72,5.72,0,0,0,21.12,12H21a9.68,9.68,0,0,0-6.64-2.59C9,9.44,4.72,13.39,3.84,18.88A8,8,0,0,0,0,25.32,7.68,7.68,0,0,0,7.63,33h23.5a7.93,7.93,0,0,0,8-7.68A8.06,8.06,0,0,0,31,17.64ZM2.59,25.27a5.42,5.42,0,0,1,3-4.36l.67-.36.05-.73c.47-4.46,3.84-7.73,8-7.73a8.05,8.05,0,0,1,1.61.16,6.69,6.69,0,0,1,2.75,1.3c.31.26.67.52,1,.83l.52.52.67-.16a.19.19,0,0,0,.16-.05,13.67,13.67,0,0,1,1.45-.1A5.37,5.37,0,0,1,27.65,19a1.22,1.22,0,0,0,.1.42L28,21l1.5-.42a5.71,5.71,0,0,1,1.61-.21,4,4,0,0,1,1.14.16,5.49,5.49,0,0,1,3.53,2.59,4.6,4.6,0,0,1,.62,2.18,5.25,5.25,0,0,1-5.29,4.88H7.52A4.85,4.85,0,0,1,2.59,25.27Z"/></g></g></svg>