<svg xmlns="http://www.w3.org/2000/svg" viewBox="0 0 40 23.46"><defs><style>.cls-1{fill:#010101;}</style></defs><title>weather-cloudy</title><g id="Ebene_2" data-name="Ebene 2"><g id="Icons"><path class="cls-1" d="M34.5,5.54a2.53,2.53,0,0,0-.58,0,6,6,0,0,0-6.34-4A7.4,7.4,0,0,0,23.06,0a7.91,7.91,0,0,0-6.78,4.35,8.22,8.22,0,0,0-4-1,9.19,9.19,0,0,0-9,8.07A6.83,6.83,0,0,0,0,16.9a6.57,6.57,0,0,0,6.52,6.56H26.61a6.78,6.78,0,0,0,6.83-6.56,2.34,2.34,0,0,0,0-.58H34.5A5.48,5.48,0,0,0,40,10.91,5.44,5.44,0,0,0,34.5,5.54ZM31.13,16.9a4.48,4.48,0,0,1-4.52,4.17H6.52A4.2,4.2,0,0,1,2.31,16.9a4.63,4.63,0,0,1,2.57-3.73l.58-.31,0-.62a7,7,0,0,1,6.83-6.61,6,6,0,0,1,3.24.93A7,7,0,0,1,16.9,7.63l.44.44.44-.13.13,0a6.57,6.57,0,0,1,1.37-.13,4.55,4.55,0,0,1,4.48,4.08l.18,1.33,1.29-.35a4.88,4.88,0,0,1,1.37-.18,4.75,4.75,0,0,1,3.15,1.24,4.2,4.2,0,0,1,1.33,2.35C31.09,16.5,31.13,16.72,31.13,16.9ZM34.5,14H32.68a6.92,6.92,0,0,0-6.08-3.59,4.82,4.82,0,0,0-.8,0,6.88,6.88,0,0,0-6.52-5,7.86,7.86,0,0,0-1,0A5.47,5.47,0,0,1,23,2.35a5.07,5.07,0,0,1,3.41,1.37l.49.44L27.54,4a2.46,2.46,0,0,1,.8-.09,3.81,3.81,0,0,1,3.59,3.33l.27,1.33,1.29-.44a2.91,2.91,0,0,1,1-.18A3.11,3.11,0,0,1,37.65,11,3.1,3.1,0,0,1,34.5,14Z"/></g></g></svg>