<svg xmlns="http://www.w3.org/2000/svg" viewBox="0 0 36.37 40"><defs><style>.cls-1{fill:#010101;}</style></defs><title>weather-sleet</title><g id="Ebene_2" data-name="Ebene 2"><g id="Icons"><path class="cls-1" d="M28.93,7.68a5.25,5.25,0,0,0-.87,0A7.49,7.49,0,0,0,21,2.32c-.39,0-.92,0-1.4.1A9,9,0,0,0,13.38,0a10,10,0,0,0-9.8,8.79,7.44,7.44,0,0,0-3.57,6,7.05,7.05,0,0,0,7.05,7.15H28.93a7.39,7.39,0,0,0,7.44-7.15A7.41,7.41,0,0,0,28.93,7.68Zm0,11.69H7.05a4.57,4.57,0,0,1-4.59-4.54,5,5,0,0,1,2.8-4.06l.63-.34,0-.68c.43-4.15,3.57-7.2,7.44-7.2a6.79,6.79,0,0,1,5,2.17l.48.48.63-.14A7.16,7.16,0,0,1,21,4.93a5,5,0,0,1,4.88,4.44L26,10.82l1.4-.39a5.31,5.31,0,0,1,1.5-.19,4.86,4.86,0,0,1,4.93,4.59A4.88,4.88,0,0,1,28.93,19.37Z"/><path class="cls-1" d="M17,30.14l1-2.32a1.29,1.29,0,0,0-.63-1.69,1.24,1.24,0,0,0-1.64.63l-1,2.32a1.29,1.29,0,0,0,.63,1.69,1,1,0,0,0,.53.1A1.16,1.16,0,0,0,17,30.14Z"/><path class="cls-1" d="M10.19,32.51a1.24,1.24,0,0,0-1.64.63L7.49,35.45a1.29,1.29,0,0,0,.63,1.69,1,1,0,0,0,.53.1,1.31,1.31,0,0,0,1.16-.77l1-2.32A1.25,1.25,0,0,0,10.19,32.51Z"/><path class="cls-1" d="M26.61,25.94H25.41L26,24.87a.86.86,0,0,0-.29-1.21.85.85,0,0,0-1.16.39l-.58,1-.58-1a.85.85,0,0,0-1.16-.39.91.91,0,0,0-.29,1.21l.58,1.06H21.3a.83.83,0,1,0,0,1.64h1.21l-.58,1.06a.86.86,0,0,0,.29,1.21.85.85,0,0,0,1.16-.39l.58-1,.58,1a.85.85,0,0,0,1.16.39A.91.91,0,0,0,26,28.64l-.58-1.06h1.21a.9.9,0,0,0,.92-.82A.87.87,0,0,0,26.61,25.94Z"/><path class="cls-1" d="M21.78,36H20.58l.58-1.06a.86.86,0,0,0-.29-1.21.85.85,0,0,0-1.16.39l-.58,1-.58-1a.85.85,0,0,0-1.16-.39.91.91,0,0,0-.29,1.21L17.68,36H16.47a.83.83,0,1,0,0,1.64h1.21l-.58,1.06a.86.86,0,0,0,.29,1.21.85.85,0,0,0,1.16-.39l.58-1,.58,1a.85.85,0,0,0,1.16.39.91.91,0,0,0,.29-1.21l-.58-1.06h1.21a.9.9,0,0,0,.92-.82A.84.84,0,0,0,21.78,36Z"/><path class="cls-1" d="M10.63,25.31H9.42L10,24.25A.86.86,0,0,0,9.71,23a.85.85,0,0,0-1.16.39l-.58,1-.58-1A.85.85,0,0,0,6.23,23a.91.91,0,0,0-.29,1.21l.63,1.06H5.36a.83.83,0,1,0,0,1.64H6.57L6,28a.86.86,0,0,0,.29,1.21.85.85,0,0,0,1.16-.39l.58-1,.58,1a.85.85,0,0,0,1.16.39A.91.91,0,0,0,10,28L9.47,27h1.21a.9.9,0,0,0,.92-.82A1,1,0,0,0,10.63,25.31Z"/></g></g></svg>