<svg xmlns="http://www.w3.org/2000/svg" viewBox="0 0 40 27.09"><defs><style>.cls-1{fill:#010101;}</style></defs><title>weather-clear-night</title><g id="Ebene_2" data-name="Ebene 2"><g id="Icons"><path class="cls-1" d="M26.72,14.74A13.15,13.15,0,0,1,29.17.89a12.65,12.65,0,0,0-3.85.94,13.13,13.13,0,1,0,10,24.27A14.35,14.35,0,0,0,40,22.81,13.26,13.26,0,0,1,26.72,14.74Z"/><polygon class="cls-1" points="11.09 2.76 9.74 0 8.38 2.76 5.37 3.23 7.55 5.37 7.03 8.38 9.74 6.98 12.5 8.38 11.98 5.37 14.17 3.23 11.09 2.76"/><polygon class="cls-1" points="4.01 13.54 3.07 11.62 2.08 13.54 0 13.85 1.51 15.37 1.15 17.45 3.07 16.46 4.95 17.45 4.58 15.37 6.15 13.85 4.01 13.54"/></g></g></svg>