<svg xmlns="http://www.w3.org/2000/svg" viewBox="0 0 40 15"><defs><style>.cls-1{fill:#010101;}</style></defs><title>weather-fog</title><g id="Ebene_2" data-name="Ebene 2"><g id="Icons"><path class="cls-1" d="M8.55,2.24H30.28a1.12,1.12,0,1,0,0-2.24H8.55a1.12,1.12,0,0,0,0,2.24Z"/><path class="cls-1" d="M13.26,6.49a1.12,1.12,0,0,0,0-2.24H1.12a1.12,1.12,0,1,0,0,2.24Z"/><path class="cls-1" d="M16.67,5.37a1.12,1.12,0,0,0,1.12,1.12H36.54a1.12,1.12,0,0,0,0-2.24H17.79A1.12,1.12,0,0,0,16.67,5.37Z"/><path class="cls-1" d="M38.88,8.5H8.15a1.12,1.12,0,1,0,0,2.24H38.88a1.12,1.12,0,0,0,0-2.24Z"/><path class="cls-1" d="M24.68,12.76H1.93a1.12,1.12,0,0,0,0,2.24H24.68a1.12,1.12,0,1,0,0-2.24Z"/><path class="cls-1" d="M36.83,12.76H29.4a1.12,1.12,0,0,0,0,2.24h7.43a1.12,1.12,0,0,0,0-2.24Z"/></g></g></svg>