<svg xmlns="http://www.w3.org/2000/svg" viewBox="0 0 38.27 40"><defs><style>.cls-1{fill:#010101;}</style></defs><title>weather-hail</title><g id="Ebene_2" data-name="Ebene 2"><g id="Icons"><path class="cls-1" d="M10.59,28.53a1.3,1.3,0,0,0-1.72.66L7.81,31.63a1.36,1.36,0,0,0,.66,1.77,1,1,0,0,0,.56.1,1.37,1.37,0,0,0,1.22-.81l1.06-2.43A1.5,1.5,0,0,0,10.59,28.53Z"/><path class="cls-1" d="M24,31.58a1.3,1.3,0,0,0-1.72.66l-1.06,2.43a1.36,1.36,0,0,0,.66,1.77,1,1,0,0,0,.56.1,1.37,1.37,0,0,0,1.22-.81l1.06-2.43A1.39,1.39,0,0,0,24,31.58Z"/><path class="cls-1" d="M18.25,27.47a1.3,1.3,0,0,0-1.72.66l-1.06,2.43a1.36,1.36,0,0,0,.66,1.77,1,1,0,0,0,.56.1,1.37,1.37,0,0,0,1.22-.81L19,29.19A1.37,1.37,0,0,0,18.25,27.47Z"/><path class="cls-1" d="M30.36,8.06a5.51,5.51,0,0,0-.91.05A7.86,7.86,0,0,0,22,2.43c-.41,0-1,.05-1.47.1A9.46,9.46,0,0,0,14,0C8.82,0,4.61,3.85,3.75,9.22A7.8,7.8,0,0,0,0,15.51a7.41,7.41,0,0,0,7.4,7.55h3.4l-1,1,2.43,2.43,2.43-2.43-1-1H30.46a7.75,7.75,0,0,0,7.81-7.5A8,8,0,0,0,30.36,8.06Zm0,12.32H7.4a4.79,4.79,0,0,1-4.81-4.76,5.3,5.3,0,0,1,2.94-4.26L6.18,11l.05-.71C6.69,5.93,10,2.74,14,2.74A7.13,7.13,0,0,1,19.26,5l.51.51.66-.15A7.51,7.51,0,0,1,22,5.22a5.2,5.2,0,0,1,5.12,4.66l.2,1.52L28.79,11a5.58,5.58,0,0,1,1.57-.2,5.1,5.1,0,0,1,5.17,4.81A5.16,5.16,0,0,1,30.36,20.37Z"/><rect class="cls-1" x="12.72" y="35.9" width="3.4" height="3.4" transform="translate(-22.36 21.21) rotate(-45)"/><rect class="cls-1" x="23.89" y="25.16" width="3.4" height="3.4" transform="translate(-11.5 25.96) rotate(-45)"/></g></g></svg>