<?xml version="1.0" encoding="utf-8"?>
<!-- Generator: Adobe Illustrator 21.0.2, SVG Export Plug-In . SVG Version: 6.00 Build 0)  -->
<svg version="1.1" xmlns="http://www.w3.org/2000/svg" xmlns:xlink="http://www.w3.org/1999/xlink" x="0px" y="0px"
	 viewBox="0 0 500 50" enable-background="new 0 0 500 50" xml:space="preserve">
<g id="Hilfslinien">
</g>
<g id="Icons">
	<g>
		<path fill="#020203" d="M37.5,24.5c1.6-1.2,2.1,0.7,1.8,2.6c-0.2,1.5-1.1,4-2.6,3.1c0,0,0,0,0,0c-0.3,3.9-2,7.1-4.8,9.8v3.4
			c7.4,5.9,14.1,5.3,14.1,5.3c-7-5.9,1.2-34.8-9-43.7c-7.7-5.4-13-3.8-13-3.8S16.8-0.4,11,5c-10.3,8.9-0.2,37.1-7,43.5
			c0,0,7.8,2.7,11.9-5.2v-3.5c-1.5-1.5-2.7-3.4-3.6-5.4c-0.7-1.9-1.1-4.4-1.1-4.4c-1.6,1.2-2.5-1.8-2.7-3.3
			c-0.2-1.1-0.2-3.3,1.5-2.4c0,0,5.5-7.5,7.4-16.3L37.5,24.5z"/>
	</g>
	<g>
		<path fill="none" d="M89,24c-0.1,0-0.2,0-0.3,0l0,0c0,0-1-13.7-12.2-9c-5.8,2.5-10.2,2.4-13,1.7c-3.5,2.5-2.5,6.5-2.3,7.2
			c0,0.1,0,0.1,0.1,0.1c-0.1,0-0.2,0-0.3,0c-1.2,0-2.3,0.9-1.1,5.3c1,3.5,1.9,4.4,2.6,4.5c0.7,4.1,4,9.4,9.1,11.2
			c1.1,0.4,2.2,0.6,3.3,0.6s2.3-0.2,3.3-0.6c5.3-1.9,8.5-7.1,9.1-11.2c0.7-0.1,1.6-1,2.6-4.5C91.3,24.9,90.2,24,89,24z"/>
		<path fill="#020203" d="M92.9,22.5c-0.1-0.1-0.2-0.2-0.2-0.3c0.5-2.8,0.5-5.1-0.1-7.2c-0.7-2.9-2.2-5.6-4.5-7.9
			c-1.2-1.3-2.5-2.4-4-3.3c-1.3-0.9-2.7-1.6-4.1-2.1c0,0,0,0-0.1,0c-1.3-0.4-2.5-0.7-3.9-0.8C75.7,1,75.2,1,74.6,1
			c-2.9,0-5.6,0.7-7.9,2.1c-2,1.1-3.3,2.4-4.1,3.4c-1,0.4-2.2,1.1-3.3,2.5c-2.3,2.9-3,7.3-2,13.3c-0.1,0.1-0.2,0.2-0.2,0.3
			c-1.7,2.3-1.1,5.5-0.4,7.7c0.4,1.4,1.2,4.1,2.8,5.7c1.3,4.7,5,10.1,11,12.3c1.4,0.5,2.9,0.8,4.5,0.8c1.5,0,3-0.3,4.5-0.8
			c5.9-2.1,9.7-7.5,11-12.3c1.7-1.6,2.4-4.3,2.8-5.7C94,28.1,94.6,24.8,92.9,22.5z M90.1,29.4c-1,3.5-1.9,4.4-2.6,4.5
			c-0.7,4.1-3.9,9.4-9.1,11.2c-1.1,0.4-2.2,0.6-3.3,0.6c-1.1,0-2.3-0.2-3.3-0.6c-5.2-1.9-8.5-7.1-9.1-11.2c-0.7-0.1-1.6-1-2.6-4.5
			C58.7,24.9,59.8,24,61,24c0.1,0,0.2,0,0.3,0c0-0.1,0-0.1-0.1-0.1c-0.2-0.7-1.2-4.7,2.3-7.2c2.8,0.7,7.2,0.8,13-1.7
			c11.2-4.7,12.2,9,12.2,9l0,0c0.1,0,0.2,0,0.3,0C90.2,24,91.3,24.9,90.1,29.4z"/>
	</g>
	<g>
		<path fill="#020203" d="M130.3,31.5V6.3c0-2.9-2.4-5.3-5.3-5.3c-2.9,0-5.3,2.4-5.3,5.3v25.2c-2.5,1.7-4.2,4.6-4.2,7.9
			c0,5.3,4.3,9.5,9.5,9.5c5.2,0,9.5-4.3,9.5-9.5C134.5,36.1,132.8,33.2,130.3,31.5z M125,47c-4.2,0-7.6-3.4-7.6-7.6
			c0-3.1,1.8-5.7,4.4-6.9V6.3c0-1.7,1.4-3.2,3.1-3.2c1.7,0,3.1,1.4,3.1,3.2v26.2c2.6,1.2,4.4,3.8,4.4,6.9
			C132.6,43.6,129.2,47,125,47z"/>
		<path fill="#020203" d="M126.7,34.1V22.5c0-0.9-0.8-1.7-1.7-1.7c-0.9,0-1.7,0.8-1.7,1.7v11.6c-2.3,0.7-3.9,2.8-3.9,5.3
			c0,3.1,2.5,5.6,5.6,5.6c3.1,0,5.6-2.5,5.6-5.6C130.6,36.9,128.9,34.8,126.7,34.1z"/>
	</g>
	<g>
		<path fill="#020203" d="M172.1,25c0,4.3-3.6,7.8-7.9,7.8H164c-4.4,0-7.9-3.5-7.9-7.8s3.6-7.8,7.9-7.8h0.1
			C168.6,17.2,172.1,20.7,172.1,25 M186.3,34.6h-22.5c-5.4,0-9.8-4.3-9.8-9.6s4.4-9.6,9.8-9.6h22.5c5.4,0,9.8,4.3,9.8,9.6
			S191.6,34.6,186.3,34.6 M186.3,12.5h-22.5c-7,0-12.7,5.6-12.7,12.5s5.7,12.5,12.7,12.5h22.5c7,0,12.7-5.6,12.7-12.5
			S193.3,12.5,186.3,12.5"/>
	</g>
	<g>
		<path fill="#020203" d="M225.4,20.8c1.1,0,1.9-0.8,1.9-1.9v-5.6c0-1-0.9-1.9-1.9-1.9c-1.1,0-1.9,0.8-1.9,1.9v5.6
			C223.5,20,224.3,20.8,225.4,20.8z"/>
		<path fill="#020203" d="M247.1,34.8h-8.8c-0.9-6.1-6.4-10.9-12.9-10.9c-6.5,0-12,4.7-12.9,10.9h-9.6c-1.1,0-1.9,0.8-1.9,1.9
			c0,1,0.9,1.9,1.9,1.9h44.2c1.1,0,1.9-0.8,1.9-1.9C249,35.6,248.1,34.8,247.1,34.8z M216.3,34.8c0.9-4.1,4.6-7.2,9.1-7.2
			c4.5,0,8.2,3.1,9.1,7.2H216.3z"/>
		<path fill="#020203" d="M211.3,25.4c0.4,0.4,0.9,0.5,1.3,0.5c0.5,0,1-0.2,1.3-0.5c0.7-0.7,0.7-1.9,0-2.6l-4-3.9
			c-0.7-0.7-1.9-0.7-2.7,0c-0.7,0.7-0.7,1.9,0,2.6L211.3,25.4z"/>
		<path fill="#020203" d="M238.2,26c0.5,0,1-0.2,1.3-0.5l4-3.9c0.7-0.7,0.7-1.9,0-2.6c-0.7-0.7-1.9-0.7-2.7,0l-4,3.9
			c-0.7,0.7-0.7,1.9,0,2.6C237.2,25.8,237.7,26,238.2,26z"/>
	</g>
	<path fill="#020203" d="M275,1L275,1c-13.2,0-24,10.8-24,24l0,0c0,13.2,10.8,24,24,24l0,0c13.2,0,24-10.8,24-24l0,0
		C299,11.8,288.2,1,275,1z M273.5,12.4c0-0.8,0.7-1.5,1.5-1.5c0.8,0,1.5,0.7,1.5,1.5v13.8c0,0.8-0.7,1.5-1.5,1.5
		c-0.8,0-1.5-0.7-1.5-1.5V12.4L273.5,12.4z M284.8,35c-5.4,5.4-14.1,5.4-19.5,0c-5.4-5.4-5.4-14.1,0-19.5c0.2-0.2,0.5-0.5,0.8-0.7
		c0.6-0.5,1.5-0.5,2.1,0.1c0.5,0.6,0.5,1.5-0.1,2.1c-4.5,3.9-5,10.8-1.1,15.3c3.9,4.5,10.8,5,15.3,1.1s5-10.8,1.1-15.3
		c-0.4-0.4-0.7-0.8-1.2-1.1c-0.6-0.5-0.7-1.4-0.2-2.1c0.5-0.6,1.4-0.7,2.1-0.2c0,0,0,0,0,0c5.8,4.9,6.5,13.7,1.5,19.4
		C285.3,34.5,285,34.8,284.8,35z"/>
	<path fill="#1F1F1D" d="M344.2,43.5H338V4.8h-4.9V2.5c0-0.4-0.2-0.7-0.4-0.9c-0.3-0.2-0.6-0.3-0.9-0.2l-19.4,3.5
		c-0.6,0.1-0.9,0.6-0.9,1.2v37.5h-5.7c-0.6,0-1.2,0.5-1.2,1.2c0,0.6,0.5,1.2,1.2,1.2h10.7c0.1,0,0.2,0,0.2,0l15.2,2.8
		c0.1,0,0.1,0,0.2,0c0.3,0,0.5-0.1,0.8-0.3c0.3-0.2,0.4-0.5,0.4-0.9v-1.6h3.8h1.2h6.2c0.6,0,1.2-0.5,1.2-1.2
		C345.5,44.1,344.9,43.5,344.2,43.5z M330.7,46.1L313.7,43V7l17.1-3.1V46.1z M335.6,43.5h-2.6V7.2h2.6V43.5z M327.7,27.5
		c0.6,0,1.1-0.8,1.1-1.7s-0.5-1.7-1.1-1.7s-1.1,0.8-1.1,1.7S327.1,27.5,327.7,27.5z"/>
	<g>
		<polygon fill="#020203" points="376.3,5.1 375.7,2.7 371.2,3.9 371.9,6.3 357.2,10.3 359.2,15.1 391.8,6.2 391,1 		"/>
		<path fill="#020203" d="M359.5,17.1l3.8,31.9H389l3.8-31.9C392.8,17.1,359.5,17.1,359.5,17.1z M367.9,42.8l-1.5-20.7h1.9l1.5,20.7
			H367.9z M377.1,42.8h-1.9V22.1h1.9V42.8z M384.3,42.8h-1.9l1.5-20.7h1.9L384.3,42.8z"/>
	</g>
</g>
</svg>
